<?xml version="1.0" encoding="UTF-8"?>
<svg width="661px" height="332px" viewBox="0 0 661 332" version="1.1" xmlns="http://www.w3.org/2000/svg" xmlns:xlink="http://www.w3.org/1999/xlink">
    <!-- Generator: Sketch 52.4 (67378) - http://www.bohemiancoding.com/sketch -->
    <title>logo</title>
    <desc>Created with Sketch.</desc>
    <g id="Page-1" stroke="none" stroke-width="1" fill="none" fill-rule="evenodd">
        <g id="logo" fill="#000000">
            <path d="M0.97,0.91 L0.97,331.88 L660.02,331.88 L660.02,0.91 L0.97,0.91 Z M648.46,320.31 L12.55,320.31 L12.55,12.49 L648.46,12.49 L648.46,320.31 Z" id="Shape" fill-rule="nonzero"></path>
            <path d="M82.82,196.07 L132.56,196.07 L144,230.13 L160.52,230.13 L115.32,102.66 L100.07,102.66 L54.87,230.13 L71.39,230.13 L82.82,196.07 Z M107.69,123.43 L127.29,180.8 L88.08,180.8 L107.69,123.43 Z" id="Shape" fill-rule="nonzero"></path>
            <polygon id="Path" points="488.04 214.86 421.58 214.86 421.58 169.85 477.14 169.85 477.14 154.57 421.58 154.57 421.58 117.94 486.22 117.94 486.22 102.66 405.63 102.66 405.63 230.13 488.04 230.13"></polygon>
            <polygon id="Path" points="527.09 230.13 557.94 177.32 588.8 230.13 607.14 230.13 567.02 161.66 601.51 102.66 583.18 102.66 557.94 146 532.72 102.66 514.38 102.66 548.87 161.66 508.76 230.13"></polygon>
            <path d="M331.18,231.59 C343.72,231.59 354.07,225.05 359.15,217.95 L359.15,230.13 L374.38,230.13 L374.38,101.21 L359.15,101.21 L359.15,150 C354.07,143.09 343.89,136.91 331.18,136.91 C304.3,136.91 289.26,156.19 289.26,184.24 L289.26,184.25 C289.26,212.3 304.3,231.59 331.18,231.59 Z M304.84,184.24 C304.84,164.57 315.2,150.73 332.63,150.73 C350.06,150.73 360.42,164.57 360.42,184.24 C360.42,203.93 350.07,217.77 332.63,217.77 C315.19,217.77 304.84,203.93 304.84,184.25 L304.84,184.24 Z" id="Shape" fill-rule="nonzero"></path>
            <polygon id="Path" points="192.1 136.72 214.26 193.53 226.24 193.53 248.4 136.72 248.4 230.13 264.36 230.13 264.36 102.66 247.32 102.66 220.25 173.32 193.19 102.66 176.14 102.66 176.14 230.13 192.1 230.13"></polygon>
        </g>
    </g>
</svg>